<?xml version="1.0" standalone="no"?>
<!DOCTYPE svg PUBLIC "-//W3C//DTD SVG 20010904//EN"
 "http://www.w3.org/TR/2001/REC-SVG-20010904/DTD/svg10.dtd">
<svg version="1.0" xmlns="http://www.w3.org/2000/svg"
 width="16.000000pt" height="16.000000pt" viewBox="0 0 16.000000 16.000000"
 preserveAspectRatio="xMidYMid meet">
<metadata>
Created by potrace 1.11, written by Peter Selinger 2001-2013
</metadata>
<g transform="translate(0.000000,16.000000) scale(0.002286,-0.002286)"
fill="#000000" stroke="none">
<path d="M1550 6260 l0 -680 420 0 420 0 0 300 0 300 270 0 270 0 0 -1043 0
-1042 -279 -1243 c-153 -683 -281 -1245 -285 -1249 -3 -3 -8 -4 -11 -1 -3 3
-102 495 -220 1094 -118 599 -217 1101 -221 1117 l-6 27 181 0 181 0 0 320 0
320 -865 0 -865 0 0 -320 0 -320 158 0 157 0 48 -217 c26 -120 218 -969 425
-1888 l378 -1670 601 -3 601 -2 25 107 c14 60 143 626 288 1258 144 633 265
1153 268 1157 4 4 136 -562 296 -1257 l289 -1265 601 0 601 0 263 1168 c145
642 337 1491 426 1887 l162 720 157 3 156 3 0 319 0 320 -865 0 -865 0 0 -320
0 -320 180 0 c99 0 180 -3 180 -8 0 -23 -437 -2223 -443 -2228 -4 -4 -9 -5
-12 -2 -3 3 -127 547 -275 1209 l-270 1204 7 1083 6 1082 254 0 253 0 0 -300
0 -300 420 0 420 0 0 680 0 680 -1940 0 -1940 0 0 -680z"/>
</g>
</svg>
