<?xml version="1.0" encoding="UTF-8" standalone="no"?>
<!DOCTYPE svg PUBLIC "-//W3C//DTD SVG 1.1//EN" "http://www.w3.org/Graphics/SVG/1.1/DTD/svg11.dtd">
<svg width="100%" height="100%" viewBox="0 0 16 16" version="1.1" xmlns="http://www.w3.org/2000/svg" xmlns:xlink="http://www.w3.org/1999/xlink" xml:space="preserve" style="fill-rule:evenodd;clip-rule:evenodd;stroke-linejoin:round;stroke-miterlimit:1.41421;">
    <path d="M4.641,3.206C5.113,3.206 5.538,3.247 5.925,3.331C6.313,3.412 6.641,3.55 6.919,3.737C7.194,3.925 7.406,4.175 7.563,4.487C7.713,4.796 7.788,5.184 7.788,5.643C7.788,6.14 7.676,6.552 7.45,6.884C7.222,7.215 6.891,7.484 6.447,7.697C7.053,7.872 7.5,8.178 7.8,8.613C8.1,9.051 8.244,9.576 8.244,10.194C8.244,10.694 8.147,11.122 7.957,11.485C7.763,11.851 7.501,12.147 7.179,12.376C6.854,12.607 6.479,12.776 6.06,12.885C5.644,12.994 5.216,13.051 4.773,13.051L0.001,13.051L0.001,3.207L4.642,3.207L4.641,3.206ZM4.359,7.181C4.743,7.181 5.062,7.09 5.312,6.906C5.562,6.725 5.681,6.425 5.681,6.012C5.681,5.784 5.64,5.593 5.559,5.446C5.475,5.299 5.365,5.183 5.225,5.102C5.087,5.018 4.931,4.961 4.747,4.93C4.569,4.896 4.381,4.88 4.191,4.88L2.166,4.88L2.166,7.18L4.36,7.18L4.359,7.181ZM4.478,11.372C4.691,11.372 4.894,11.353 5.084,11.309C5.278,11.265 5.45,11.2 5.593,11.1C5.737,11.003 5.859,10.875 5.946,10.706C6.034,10.54 6.074,10.328 6.074,10.069C6.074,9.563 5.93,9.2 5.646,8.981C5.362,8.765 4.984,8.659 4.515,8.659L2.165,8.659L2.165,11.368L4.478,11.368L4.478,11.372Z" style="fill:white;fill-rule:nonzero;"/>
    <path d="M11.331,11.338C11.625,11.625 12.047,11.769 12.597,11.769C12.991,11.769 13.335,11.669 13.619,11.469C13.903,11.269 14.075,11.057 14.141,10.838L15.866,10.838C15.588,11.697 15.169,12.307 14.594,12.676C14.028,13.045 13.335,13.232 12.531,13.232C11.968,13.232 11.465,13.141 11.012,12.963C10.559,12.782 10.181,12.529 9.862,12.197C9.553,11.866 9.309,11.472 9.137,11.009C8.968,10.55 8.881,10.04 8.881,9.49C8.881,8.956 8.969,8.459 9.143,7.999C9.321,7.536 9.565,7.14 9.89,6.805C10.215,6.47 10.596,6.205 11.046,6.011C11.493,5.817 11.987,5.72 12.534,5.72C13.137,5.72 13.665,5.836 14.118,6.073C14.568,6.307 14.94,6.623 15.231,7.017C15.522,7.411 15.728,7.864 15.856,8.37C15.984,8.876 16.028,9.404 15.993,9.958L10.846,9.958C10.846,10.517 11.034,11.052 11.33,11.336L11.331,11.338ZM13.578,7.594C13.347,7.338 12.95,7.197 12.472,7.197C12.159,7.197 11.9,7.25 11.694,7.356C11.491,7.462 11.325,7.593 11.197,7.75C11.072,7.906 10.984,8.075 10.935,8.253C10.885,8.425 10.854,8.584 10.844,8.722L14.032,8.722C13.985,8.222 13.813,7.853 13.579,7.594L13.578,7.594Z" style="fill:white;fill-rule:nonzero;"/>
    <path d="M10.444,4L14.435,4L14.435,4.972L10.444,4.972L10.444,4L10.444,4Z" style="fill:white;fill-rule:nonzero;"/>
</svg>
