<?xml version="1.0" encoding="UTF-8" standalone="no"?>
<!DOCTYPE svg PUBLIC "-//W3C//DTD SVG 1.1//EN" "http://www.w3.org/Graphics/SVG/1.1/DTD/svg11.dtd">
<svg width="100%" height="100%" viewBox="0 0 16 16" version="1.1" xmlns="http://www.w3.org/2000/svg" xmlns:xlink="http://www.w3.org/1999/xlink" xml:space="preserve" style="fill-rule:evenodd;clip-rule:evenodd;stroke-linejoin:round;stroke-miterlimit:1.41421;">
    <path d="M14.777,5.751L7.777,1.084C7.609,0.972 7.39,0.972 7.222,1.084L0.222,5.751C0.083,5.844 -0.001,6 -0.001,6.167L-0.001,10.834C-0.001,11.001 0.083,11.157 0.222,11.25L7.222,15.917C7.306,15.973 7.403,16.001 7.499,16.001C7.595,16.001 7.692,15.973 7.776,15.917L14.776,11.25C14.915,11.157 14.999,11.001 14.999,10.834L14.999,6.167C14.999,6 14.915,5.844 14.776,5.751L14.777,5.751ZM7.5,10.232L4.901,8.5L7.5,6.768L10.099,8.5L7.5,10.232ZM8,5.899L8,2.434L13.599,6.166L11,7.898L8,5.898L8,5.899ZM7,5.899L4,7.899L1.401,6.167L7,2.435L7,5.9L7,5.899ZM3.099,8.5L1,9.899L1,7.101L3.099,8.5ZM4,9.101L7,11.101L7,14.566L1.401,10.834L4,9.102L4,9.101ZM8,11.101L11,9.101L13.599,10.833L8,14.565L8,11.1L8,11.101ZM11.901,8.5L14,7.101L14,9.899L11.901,8.5Z" style="fill:white;fill-rule:nonzero;"/>
</svg>
