<?xml version="1.0" encoding="UTF-8" standalone="no"?>
<!DOCTYPE svg PUBLIC "-//W3C//DTD SVG 1.1//EN" "http://www.w3.org/Graphics/SVG/1.1/DTD/svg11.dtd">
<svg width="100%" height="100%" viewBox="0 0 16 16" version="1.1" xmlns="http://www.w3.org/2000/svg" xmlns:xlink="http://www.w3.org/1999/xlink" xml:space="preserve" style="fill-rule:evenodd;clip-rule:evenodd;stroke-linejoin:round;stroke-miterlimit:1.41421;">
    <path d="M8,0.198C3.582,0.198 0,3.78 0,8.198C0,11.733 2.292,14.731 5.471,15.789C5.871,15.863 6.018,15.615 6.018,15.404C6.018,15.213 6.01,14.583 6.007,13.915C3.781,14.399 3.312,12.971 3.312,12.971C2.948,12.046 2.424,11.8 2.424,11.8C1.698,11.303 2.479,11.314 2.479,11.314C3.282,11.37 3.705,12.138 3.705,12.138C4.419,13.361 5.577,13.007 6.033,12.803C6.105,12.286 6.312,11.933 6.541,11.733C4.764,11.531 2.896,10.845 2.896,7.779C2.896,6.906 3.209,6.192 3.72,5.632C3.637,5.43 3.363,4.617 3.797,3.515C3.797,3.515 4.469,3.3 5.998,4.335C6.636,4.158 7.32,4.069 8,4.066C8.68,4.069 9.365,4.158 10.004,4.335C11.531,3.3 12.202,3.515 12.202,3.515C12.637,4.617 12.364,5.431 12.281,5.632C12.794,6.192 13.104,6.906 13.104,7.779C13.104,10.852 11.232,11.528 9.451,11.726C9.738,11.974 9.994,12.461 9.994,13.207C9.994,14.277 9.985,15.139 9.985,15.402C9.985,15.615 10.129,15.864 10.535,15.786C13.712,14.727 16.001,11.729 16.001,8.196C16.001,3.778 12.419,0.196 8.001,0.196L8,0.198Z" style="fill:white;fill-rule:nonzero;"/>
</svg>
