<?xml version="1.0" encoding="UTF-8" standalone="no"?>
<!DOCTYPE svg PUBLIC "-//W3C//DTD SVG 1.1//EN" "http://www.w3.org/Graphics/SVG/1.1/DTD/svg11.dtd">
<svg width="100%" height="100%" viewBox="0 0 16 16" version="1.1" xmlns="http://www.w3.org/2000/svg" xmlns:xlink="http://www.w3.org/1999/xlink" xml:space="preserve" style="fill-rule:evenodd;clip-rule:evenodd;stroke-linejoin:round;stroke-miterlimit:1.41421;">
    <path d="M6,6L8.767,6L8.767,7.418L8.807,7.418C9.192,6.727 10.134,6 11.539,6C14.46,6 15,7.818 15,10.183L15,15L12.115,15L12.115,10.73C12.115,9.712 12.094,8.401 10.615,8.401C9.113,8.401 8.883,9.51 8.883,10.656L8.883,15L6,15L6,6L6,6Z" style="fill:white;fill-rule:nonzero;"/>
    <rect x="1" y="6" width="3" height="9" style="fill:white;fill-rule:nonzero;"/>
    <path d="M4,3.5C4,4.328 3.328,5 2.5,5C1.672,5 1,4.328 1,3.5C1,2.672 1.672,2 2.5,2C3.328,2 4,2.672 4,3.5Z" style="fill:white;fill-rule:nonzero;"/>
</svg>
